<svg width="1160" height="620" viewBox="0 0 1160 620" fill="none" xmlns="http://www.w3.org/2000/svg">
  <defs>
    <linearGradient id="bg" x1="0" y1="0" x2="1" y2="1"><stop stop-color="#ffffff"/><stop offset="1" stop-color="#eef8e7"/></linearGradient>
    <filter id="shadow" x="-10%" y="-10%" width="120%" height="130%"><feDropShadow dx="0" dy="22" stdDeviation="18" flood-color="#15351e" flood-opacity=".16"/></filter>
  </defs>
  <rect width="1160" height="620" rx="34" fill="#eaf4e2"/>
  <rect x="42" y="42" width="1076" height="536" rx="28" fill="url(#bg)" filter="url(#shadow)"/>
  <text x="96" y="118" fill="#102817" font-family="Arial, sans-serif" font-size="36" font-weight="800">Potato Leaf Classifier Workflow</text>
  <text x="96" y="154" fill="#647260" font-family="Arial, sans-serif" font-size="18" font-weight="600">Static interface illustration for a CNN image classification project.</text>
  <g transform="translate(110 230)">
    <rect width="250" height="220" rx="28" fill="#f7fbf4" stroke="#d7e8ce" stroke-width="2"/>
    <circle cx="125" cy="76" r="42" fill="#e5f3db"/>
    <path d="M125 48v56M97 76h56" stroke="#438b46" stroke-width="8" stroke-linecap="round"/>
    <text x="125" y="150" text-anchor="middle" fill="#132b19" font-family="Arial, sans-serif" font-size="28" font-weight="800">Input</text>
    <text x="125" y="184" text-anchor="middle" fill="#697669" font-family="Arial, sans-serif" font-size="16" font-weight="700">Potato leaf image</text>
  </g>
  <path d="M392 340h104" stroke="#438b46" stroke-width="5" stroke-dasharray="9 12" stroke-linecap="round"/><path d="M510 340l-20-12v24l20-12Z" fill="#438b46"/>
  <g transform="translate(520 210)">
    <rect width="260" height="260" rx="30" fill="#f7fbff" stroke="#cfe7fa" stroke-width="2"/>
    <circle cx="130" cy="86" r="46" fill="#e7f4ff"/>
    <path d="M105 94c-14-8-13-30 5-34 5-15 28-15 33 0 18 5 18 31 0 36M130 60v76M111 82h38M111 104h38" stroke="#367ec1" stroke-width="6" stroke-linecap="round" stroke-linejoin="round"/>
    <text x="130" y="172" text-anchor="middle" fill="#132b19" font-family="Arial, sans-serif" font-size="28" font-weight="800">Processing</text>
    <text x="130" y="207" text-anchor="middle" fill="#697669" font-family="Arial, sans-serif" font-size="16" font-weight="700">CNN feature extraction</text>
  </g>
  <path d="M812 340h104" stroke="#438b46" stroke-width="5" stroke-dasharray="9 12" stroke-linecap="round"/><path d="M930 340l-20-12v24l20-12Z" fill="#438b46"/>
  <g transform="translate(940 230)">
    <rect width="160" height="220" rx="28" fill="#fff9f0" stroke="#eed9b0" stroke-width="2"/>
    <circle cx="80" cy="76" r="38" fill="#f6ead4"/>
    <circle cx="80" cy="76" r="24" stroke="#b8892b" stroke-width="6"/><circle cx="80" cy="76" r="8" stroke="#b8892b" stroke-width="6"/>
    <text x="80" y="150" text-anchor="middle" fill="#132b19" font-family="Arial, sans-serif" font-size="26" font-weight="800">Prediction</text>
    <text x="80" y="184" text-anchor="middle" fill="#697669" font-family="Arial, sans-serif" font-size="15" font-weight="700">3 leaf classes</text>
  </g>
  <g transform="translate(250 500)" font-family="Arial, sans-serif" font-weight="800" font-size="16">
    <rect width="170" height="48" rx="24" fill="#eaf5e4"/><circle cx="28" cy="24" r="10" fill="#438b46"/><text x="52" y="30" fill="#24562e">Healthy</text>
    <rect x="210" width="190" height="48" rx="24" fill="#fbf2d8"/><circle cx="238" cy="24" r="10" fill="#d1a53a"/><text x="262" y="30" fill="#76591a">Early Blight</text>
    <rect x="440" width="180" height="48" rx="24" fill="#f2e7de"/><circle cx="468" cy="24" r="10" fill="#876143"/><text x="492" y="30" fill="#684930">Late Blight</text>
  </g>
</svg>
